<svg width="1600" height="900" viewBox="0 0 1600 900" fill="none" xmlns="http://www.w3.org/2000/svg">
  <rect width="1600" height="900" fill="#0D1018"/>
  <rect width="1600" height="900" fill="url(#bg)"/>
  <rect x="994" y="146" width="286" height="590" rx="36" fill="#101824" stroke="#4DE3EA" stroke-opacity="0.2"/>
  <rect x="1032" y="220" width="210" height="70" rx="20" fill="#1A6D8B"/>
  <path d="M1074 252L1138 220V286L1074 252Z" fill="#EAF8FB"/>
  <rect x="1032" y="332" width="170" height="22" rx="11" fill="#243549"/>
  <rect x="1032" y="374" width="210" height="16" rx="8" fill="#31475D"/>
  <rect x="1032" y="454" width="198" height="82" rx="18" fill="#152230" stroke="#4DE3EA" stroke-opacity="0.18"/>
  <path d="M1328 258L1486 206L1400 384L1368 298L1282 284L1328 258Z" fill="#7CCBFF"/>
  <text x="126" y="188" fill="#8BE9F0" font-family="DM Sans, Arial, sans-serif" font-size="34" font-weight="700" letter-spacing="6">MONITORING PIPELINE</text>
  <text x="118" y="342" fill="#F5F7FA" font-family="Syne, Arial, sans-serif" font-size="114" font-weight="700" letter-spacing="-4">Twitter to</text>
  <text x="118" y="442" fill="#F5F7FA" font-family="Syne, Arial, sans-serif" font-size="114" font-weight="700" letter-spacing="-4">Telegram</text>
  <text x="126" y="548" fill="#A7B2C1" font-family="DM Sans, Arial, sans-serif" font-size="34" font-weight="500">Signal tracking on X routed into one fast Telegram feed.</text>
  <defs>
    <linearGradient id="bg" x1="120" y1="102" x2="1488" y2="808" gradientUnits="userSpaceOnUse">
      <stop stop-color="#101828"/>
      <stop offset="0.55" stop-color="#17334D"/>
      <stop offset="1" stop-color="#1E6282"/>
    </linearGradient>
  </defs>
</svg>
