<svg width="1600" height="900" viewBox="0 0 1600 900" fill="none" xmlns="http://www.w3.org/2000/svg">
  <rect width="1600" height="900" fill="#0D1119"/>
  <rect width="1600" height="900" fill="url(#bg)"/>
  <g opacity="0.92">
    <rect x="964" y="160" width="370" height="492" rx="28" fill="#111827" stroke="#2BD7E0" stroke-opacity="0.25"/>
    <rect x="998" y="214" width="244" height="28" rx="14" fill="#243242"/>
    <rect x="998" y="278" width="298" height="18" rx="9" fill="#1E7F93"/>
    <rect x="998" y="320" width="250" height="18" rx="9" fill="#1E7F93" fill-opacity="0.68"/>
    <rect x="998" y="398" width="302" height="90" rx="18" fill="#121D29" stroke="#2BD7E0" stroke-opacity="0.22"/>
    <rect x="1026" y="432" width="88" height="18" rx="9" fill="#2BD7E0"/>
    <rect x="1026" y="458" width="186" height="14" rx="7" fill="#314155"/>
    <rect x="998" y="518" width="302" height="90" rx="18" fill="#121D29" stroke="#2BD7E0" stroke-opacity="0.14"/>
  </g>
  <path d="M180 640C320 486 404 388 536 320C636 268 738 250 866 250" stroke="#2BD7E0" stroke-width="16" stroke-linecap="round" stroke-dasharray="10 26"/>
  <circle cx="284" cy="526" r="22" fill="#2BD7E0"/>
  <circle cx="538" cy="320" r="26" fill="#2BD7E0"/>
  <circle cx="866" cy="250" r="28" fill="#F5B04B"/>
  <text x="124" y="188" fill="#8BE9F0" font-family="DM Sans, Arial, sans-serif" font-size="34" font-weight="700" letter-spacing="6">DATA PIPELINE</text>
  <text x="118" y="348" fill="#F5F7FA" font-family="Syne, Arial, sans-serif" font-size="114" font-weight="700" letter-spacing="-4">X Profile</text>
  <text x="118" y="446" fill="#F5F7FA" font-family="Syne, Arial, sans-serif" font-size="114" font-weight="700" letter-spacing="-4">Scanning</text>
  <text x="126" y="552" fill="#A7B2C1" font-family="DM Sans, Arial, sans-serif" font-size="34" font-weight="500">20,509 profiles scanned across one long-run creator vetting pipeline.</text>
  <defs>
    <linearGradient id="bg" x1="124" y1="96" x2="1480" y2="802" gradientUnits="userSpaceOnUse">
      <stop stop-color="#101827"/>
      <stop offset="0.5" stop-color="#162C4A"/>
      <stop offset="1" stop-color="#0A6673"/>
    </linearGradient>
  </defs>
</svg>
