<svg width="1600" height="900" viewBox="0 0 1600 900" fill="none" xmlns="http://www.w3.org/2000/svg">
  <rect width="1600" height="900" fill="#0C141C"/>
  <rect width="1600" height="900" fill="url(#bg)"/>
  <circle cx="1180" cy="220" r="220" fill="#4DE3EA" fill-opacity="0.08"/>
  <circle cx="1180" cy="220" r="138" stroke="#4DE3EA" stroke-opacity="0.28" stroke-width="2"/>
  <circle cx="1180" cy="220" r="70" fill="#102633" stroke="#4DE3EA" stroke-opacity="0.4" stroke-width="2"/>
  <path d="M980 516C1068 450 1164 432 1268 456C1345 474 1416 518 1474 584" stroke="#4DE3EA" stroke-width="16" stroke-linecap="round"/>
  <path d="M956 606C1038 540 1124 516 1226 532C1316 548 1394 596 1454 664" stroke="#F4B14A" stroke-width="14" stroke-linecap="round"/>
  <rect x="910" y="180" width="80" height="80" rx="22" fill="#13222D" stroke="#4DE3EA" stroke-opacity="0.26"/>
  <rect x="834" y="338" width="80" height="80" rx="22" fill="#13222D" stroke="#4DE3EA" stroke-opacity="0.26"/>
  <rect x="1386" y="352" width="80" height="80" rx="22" fill="#13222D" stroke="#F4B14A" stroke-opacity="0.26"/>
  <path d="M952 220L1110 220" stroke="#4DE3EA" stroke-width="10" stroke-linecap="round"/>
  <path d="M874 378L1048 290" stroke="#4DE3EA" stroke-width="10" stroke-linecap="round"/>
  <path d="M1264 260L1426 392" stroke="#F4B14A" stroke-width="10" stroke-linecap="round"/>
  <text x="128" y="188" fill="#8BE9F0" font-family="DM Sans, Arial, sans-serif" font-size="34" font-weight="700" letter-spacing="6">AI RETRIEVAL SYSTEM</text>
  <text x="120" y="352" fill="#F5F7FA" font-family="Syne, Arial, sans-serif" font-size="114" font-weight="700" letter-spacing="-4">RAG Agent</text>
  <text x="126" y="452" fill="#F5F7FA" font-family="Syne, Arial, sans-serif" font-size="96" font-weight="700" letter-spacing="-4">in n8n</text>
  <text x="128" y="556" fill="#A7B2C1" font-family="DM Sans, Arial, sans-serif" font-size="34" font-weight="500">Context retrieval, workflow orchestration, and grounded answers in one flow.</text>
  <defs>
    <linearGradient id="bg" x1="128" y1="102" x2="1470" y2="806" gradientUnits="userSpaceOnUse">
      <stop stop-color="#0B1820"/>
      <stop offset="0.52" stop-color="#103847"/>
      <stop offset="1" stop-color="#0C4D57"/>
    </linearGradient>
  </defs>
</svg>
